<?xml version="1.0" encoding="utf-8"?>
<!-- Generator: Adobe Illustrator 23.0.2, SVG Export Plug-In . SVG Version: 6.00 Build 0)  -->
<svg version="1.1" id="Слой_1" xmlns="http://www.w3.org/2000/svg" xmlns:xlink="http://www.w3.org/1999/xlink" x="0px" y="0px"
	 viewBox="0 0 40 40" style="enable-background:new 0 0 40 40;" xml:space="preserve">
<style type="text/css">
	.st0{fill:url(#SVGID_1_);}
	.st1{fill:url(#SVGID_2_);}
	.st2{fill:url(#SVGID_3_);}
</style>
<linearGradient id="SVGID_1_" gradientUnits="userSpaceOnUse" x1="20" y1="42" x2="20" y2="2" gradientTransform="matrix(1 0 0 -1 0 42)">
	<stop  offset="0" style="stop-color:#BC9CFF"/>
	<stop  offset="1" style="stop-color:#8BA4F9"/>
</linearGradient>
<path class="st0" d="M20,40C9,40,0,31,0,20S9,0,20,0s20,9,20,20S31,40,20,40z M20,2.4C10.3,2.4,2.4,10.3,2.4,20S10.3,37.6,20,37.6
	S37.6,29.7,37.6,20S29.7,2.4,20,2.4z"/>
<linearGradient id="SVGID_2_" gradientUnits="userSpaceOnUse" x1="26.2363" y1="26.788" x2="26.2363" y2="20.8763" gradientTransform="matrix(1 0 0 -1 0 42)">
	<stop  offset="0" style="stop-color:#6FCF97"/>
	<stop  offset="1" style="stop-color:#66D2EA"/>
</linearGradient>
<path class="st1" d="M30.8,16.4c0,0.6-0.5,1.2-1.2,1.2c-2.8,0-5.3,1.4-6.8,3.6c-0.3-0.8-0.7-1.6-1.2-2.3c1.9-2.2,4.8-3.6,7.9-3.6
	C30.3,15.2,30.8,15.7,30.8,16.4z"/>
<linearGradient id="SVGID_3_" gradientUnits="userSpaceOnUse" x1="15.224" y1="26.7586" x2="15.224" y2="14.9939" gradientTransform="matrix(1 0 0 -1 0 42)">
	<stop  offset="0" style="stop-color:#BC9CFF"/>
	<stop  offset="1" style="stop-color:#8BA4F9"/>
</linearGradient>
<path class="st2" d="M19.9,27c-0.6,0-1.2-0.5-1.2-1.2c0-4.5-3.7-8.2-8.2-8.2c-0.6,0-1.2-0.5-1.2-1.2c0-0.6,0.5-1.2,1.2-1.2
	c5.9,0,10.6,4.7,10.6,10.6C21.1,26.5,20.6,27,19.9,27z"/>
</svg>
